# xmcd
#
# Track frame offsets:
#	150
#	23133
#	42116
#	61453
#	80575
#	96656
#	108823
#	130379
#	144947
#	162924
#
# Disc length: 2400 seconds
#
# Revision: 0
# Processed by: cddbd v1.5.2PL0 Copyright (c) Steve Scherf et al.
# Submitted via: audiograbber 1.83.01
#
DISCID=82095e0a
DTITLE=Champion Jack Dupree - Mercy On Me
DYEAR=2006
DGENRE=Blues
TTITLE0=Mercy On Me
TTITLE1=Sleeping On The Street
TTITLE2=I'm A Gamblin' Man
TTITLE3=I'm Growing Older Every Day
TTITLE4=Door To Door Blues
TTITLE5=When I've Been Drinking 
TTITLE6=The Cold Ground Is My Bed
TTITLE7=Lonesome Bedroom Blues
TTITLE8=A Good Woman Is Hard To Find
TTITLE9=I Hate To Be Alone
EXTD=Collectable Records Reiussue
EXTT0=
EXTT1=
EXTT2=
EXTT3=
EXTT4=
EXTT5=
EXTT6=
EXTT7=
EXTT8=
EXTT9=
PLAYORDER=
